<svg width="391" height="392" viewBox="0 0 391 392" fill="none" xmlns="http://www.w3.org/2000/svg">
<path d="M193.16 371.528C287.568 371.528 364.1 347.697 364.1 318.299C364.1 288.902 287.568 265.071 193.16 265.071C98.7528 265.071 22.2206 288.902 22.2206 318.299C22.2206 347.697 98.7528 371.528 193.16 371.528Z" fill="#FF7F2C"/>
<path opacity="0.5" d="M193.16 371.528C287.568 371.528 364.1 347.697 364.1 318.299C364.1 288.902 287.568 265.071 193.16 265.071C98.7528 265.071 22.2206 288.902 22.2206 318.299C22.2206 347.697 98.7528 371.528 193.16 371.528Z" fill="white"/>
<path d="M178.721 83.5952C178.721 83.5952 139.982 79.0022 114.494 98.8755C89.0053 118.749 67.0857 201.794 67.5913 241.571C68.0969 281.347 82.8934 301.191 120.1 317.482C157.307 333.773 226.619 327.678 265.358 315.445C304.096 303.212 316.84 260.448 316.335 237.498C315.829 214.548 290.341 188.075 281.671 182.501C273.001 176.927 248.539 165.184 236.315 146.827C224.091 128.47 206.232 88.6936 178.721 83.5952Z" fill="#FF7F2C"/>
<path opacity="0.13" d="M272.466 312.695C257.818 310.718 240.449 306.75 227.303 298.768C199.54 281.927 192.61 250.207 182.691 238.315C172.772 226.424 154.927 227.42 147.001 214.533C139.075 201.646 151.953 106.53 129.156 100.585C124.53 99.2491 119.74 98.5637 114.925 98.5483C114.791 98.6673 114.628 98.7564 114.494 98.8754C89.0053 118.749 67.0857 201.794 67.5913 241.571C68.0969 281.347 82.8934 301.191 120.1 317.482C157.307 333.773 226.619 327.678 265.358 315.445C267.782 314.677 270.156 313.759 272.466 312.695Z" fill="black"/>
<path d="M178.721 83.5952C178.721 83.5952 139.982 79.0022 114.494 98.8755C89.0053 118.749 67.0857 201.794 67.5913 241.571C68.0969 281.347 82.8934 301.191 120.1 317.482C157.307 333.773 226.619 327.678 265.358 315.445C304.096 303.212 316.84 260.448 316.335 237.498C315.829 214.548 290.341 188.075 281.671 182.501C273.001 176.927 248.539 165.184 236.315 146.827C224.091 128.47 206.232 88.6936 178.721 83.5952Z" stroke="#263238" stroke-width="1.48708" stroke-linecap="round" stroke-linejoin="round"/>
<path d="M163.463 101.551C163.463 101.551 138.183 106.382 133.722 110.841C129.26 115.301 110.672 185.162 110.672 185.162C115.84 183.904 121.261 184.162 126.286 185.905C133.722 188.878 134.465 196.682 135.209 200.398C135.806 204.835 136.178 209.3 136.324 213.775C136.324 213.775 211.466 207.072 227.452 203.37C243.438 199.669 267.767 197.945 267.767 197.945C267.767 197.945 226.664 105.282 220.344 101.938C214.024 98.5933 187.628 98.2217 183.911 98.9649C180.193 99.7081 163.463 101.551 163.463 101.551Z" fill="#263238" stroke="#263238" stroke-width="1.48708" stroke-linecap="round" stroke-linejoin="round"/>
<path d="M138.555 187.391L144.875 135.739" stroke="white" stroke-width="1.48708" stroke-linecap="round" stroke-linejoin="round"/>
<path d="M143.388 149.488L151.938 138.34" stroke="white" stroke-width="1.48708" stroke-linecap="round" stroke-linejoin="round"/>
<path d="M169.04 156.177C169.04 156.177 193.205 148.373 209.191 148.373" stroke="white" stroke-width="1.48708" stroke-linecap="round" stroke-linejoin="round"/>
<path d="M191.852 134.876L190.231 147.258C190.231 147.258 194.32 147.258 194.692 149.116C194.717 149.805 194.598 150.492 194.342 151.132C194.086 151.772 193.699 152.351 193.205 152.832C193.205 152.832 204.73 159.15 206.217 166.582" stroke="white" stroke-width="1.48708" stroke-linecap="round" stroke-linejoin="round"/>
<path d="M177.338 87.6978C177.338 87.6978 163.463 92.157 161.471 95.6203C159.478 99.0837 160.98 123.372 160.98 126.344C160.98 129.317 162.72 124.605 164.207 121.142C165.694 117.679 170.899 112.461 172.624 112.967C174.349 113.472 175.36 115.434 175.36 118.66C175.36 121.885 179.316 126.344 182.795 128.812C186.275 131.279 189.487 133.776 189.487 133.776C189.487 133.776 196.67 123.372 198.41 120.637C200.15 117.902 199.897 112.224 200.135 110.232C200.373 108.24 204.849 115.687 205.845 113.71C206.841 111.733 203.614 109.994 200.135 104.539C196.655 99.0837 197.666 93.3907 192.461 89.422C187.257 85.4533 181.308 86.687 177.338 87.6978Z" fill="white"/>
<path d="M161.471 95.6055C160.162 97.9243 160.37 109.489 160.668 117.902C163.835 113.829 170.363 106.129 174.14 107.586C178.959 109.444 180.803 123.134 180.803 123.134L177.546 87.6978H177.338C177.338 87.6978 163.463 92.157 161.471 95.6055Z" fill="#FF7F2C"/>
<path opacity="0.5" d="M161.471 95.6055C160.162 97.9243 160.37 109.489 160.668 117.902C163.835 113.829 170.363 106.129 174.14 107.586C178.959 109.444 180.803 123.134 180.803 123.134L177.546 87.6978H177.338C177.338 87.6978 163.463 92.157 161.471 95.6055Z" fill="white"/>
<path d="M177.338 87.6978C177.338 87.6978 163.463 92.157 161.471 95.6203C159.478 99.0837 160.98 123.372 160.98 126.344C160.98 129.317 162.72 124.605 164.207 121.142C165.694 117.679 170.899 112.461 172.624 112.967C174.349 113.472 175.36 115.434 175.36 118.66C175.36 121.885 179.316 126.344 182.795 128.812C186.275 131.279 189.487 133.776 189.487 133.776C189.487 133.776 196.67 123.372 198.41 120.637C200.15 117.902 199.897 112.224 200.135 110.232C200.373 108.24 204.849 115.687 205.845 113.71C206.841 111.733 203.614 109.994 200.135 104.539C196.655 99.0837 197.666 93.3907 192.461 89.422C187.257 85.4533 181.308 86.687 177.338 87.6978Z" stroke="#263238" stroke-width="1.48708" stroke-linecap="round" stroke-linejoin="round"/>
<path d="M144.503 188.135C144.503 188.135 135.952 175.872 125.543 174.757C115.133 173.642 102.493 182.189 102.121 185.162C101.75 188.135 99.1472 204.113 101.006 206.343C102.865 208.573 109.928 210.431 123.684 205.971C137.439 201.512 143.016 195.938 144.503 188.135Z" fill="white"/>
<path d="M109.72 205.957C109.72 205.957 106.746 197.454 108.233 194.496C109.72 191.538 115.669 187.064 119.342 182.605C123.015 178.146 110.672 185.117 110.077 182.605C109.616 180.584 116.605 176.541 119.357 175.039C110.702 176.704 102.419 182.724 102.121 185.117C101.75 188.09 99.1472 204.069 101.006 206.298C101.958 207.443 104.322 208.498 108.263 208.632C109.155 207.101 109.72 205.957 109.72 205.957Z" fill="#FF7F2C"/>
<path opacity="0.5" d="M109.72 205.957C109.72 205.957 106.746 197.454 108.233 194.496C109.72 191.538 115.669 187.064 119.342 182.605C123.015 178.146 110.672 185.117 110.077 182.605C109.616 180.584 116.605 176.541 119.357 175.039C110.702 176.704 102.419 182.724 102.121 185.117C101.75 188.09 99.1472 204.069 101.006 206.298C101.958 207.443 104.322 208.498 108.263 208.632C109.155 207.101 109.72 205.957 109.72 205.957Z" fill="white"/>
<path d="M144.503 188.135C144.503 188.135 135.952 175.872 125.543 174.757C115.133 173.642 102.493 182.189 102.121 185.162C101.75 188.135 99.1472 204.113 101.006 206.343C102.865 208.573 109.928 210.431 123.684 205.971C137.439 201.512 143.016 195.938 144.503 188.135Z" stroke="#263238" stroke-width="1.48708" stroke-linecap="round" stroke-linejoin="round"/>
<path d="M115.505 191.479C115.505 191.479 101.556 197.008 101.006 207.829C100.694 213.775 110.672 216.376 121.082 216.376C131.491 216.376 146.362 203.37 156.028 197.796C165.694 192.222 188 179.216 190.602 178.101C193.205 176.986 202.127 179.959 205.845 181.074C209.388 181.833 213.003 182.207 216.626 182.189C216.626 182.189 221.831 190.364 224.433 190.364C227.036 190.364 218.857 178.101 217.742 175.5C216.626 172.899 198.41 166.953 196.179 166.953C193.948 166.953 141.901 179.959 134.093 182.932C126.286 185.905 115.505 191.479 115.505 191.479Z" fill="white"/>
<path d="M144.667 189.933C165.917 179.305 196.179 166.953 196.179 166.953C193.948 166.953 141.901 179.959 134.093 182.932C126.286 185.905 115.505 191.479 115.505 191.479C115.505 191.479 101.556 197.008 101.006 207.829C100.694 213.775 110.672 216.376 121.082 216.376C131.491 216.376 146.362 203.37 156.028 197.796L161.887 194.407C147.685 196.206 128.695 197.9 144.667 189.933Z" fill="#FF7F2C"/>
<path opacity="0.5" d="M144.667 189.933C165.917 179.305 196.179 166.953 196.179 166.953C193.948 166.953 141.901 179.959 134.093 182.932C126.286 185.905 115.505 191.479 115.505 191.479C115.505 191.479 101.556 197.008 101.006 207.829C100.694 213.775 110.672 216.376 121.082 216.376C131.491 216.376 146.362 203.37 156.028 197.796L161.887 194.407C147.685 196.206 128.695 197.9 144.667 189.933Z" fill="white"/>
<path d="M115.505 191.479C115.505 191.479 101.556 197.008 101.006 207.829C100.694 213.775 110.672 216.376 121.082 216.376C131.491 216.376 146.362 203.37 156.028 197.796C165.694 192.222 188 179.216 190.602 178.101C193.205 176.986 202.127 179.959 205.845 181.074C209.388 181.833 213.003 182.207 216.626 182.189C216.626 182.189 221.831 190.364 224.433 190.364C227.036 190.364 218.857 178.101 217.742 175.5C216.626 172.899 198.41 166.953 196.179 166.953C193.948 166.953 141.901 179.959 134.093 182.932C126.286 185.905 115.505 191.479 115.505 191.479Z" stroke="#263238" stroke-width="1.48708" stroke-linecap="round" stroke-linejoin="round"/>
<path d="M224.24 108.835L212.909 172.527L294.698 172.899L306.862 112.491C306.963 111.958 306.948 111.41 306.817 110.883C306.686 110.357 306.443 109.865 306.104 109.441C305.765 109.018 305.338 108.672 304.853 108.429C304.368 108.186 303.836 108.05 303.293 108.032L228.047 105.773C227.151 105.744 226.274 106.036 225.576 106.598C224.877 107.16 224.403 107.954 224.24 108.835Z" fill="#F7F8FA" stroke="#263238" stroke-width="1.48708" stroke-linecap="round" stroke-linejoin="round"/>
<path d="M212.909 172.527L173.085 200.679L264.168 198.078L294.698 172.898L212.909 172.527Z" fill="white"/>
<path d="M212.909 172.527L173.085 200.679L264.168 198.078L294.698 172.898L212.909 172.527Z" fill="#FF7F2C"/>
<path opacity="0.5" d="M212.909 172.527L173.085 200.679L264.168 198.078L294.698 172.898L212.909 172.527Z" fill="white"/>
<path d="M212.909 172.527L173.085 200.679L264.168 198.078L294.698 172.898L212.909 172.527Z" stroke="#263238" stroke-width="1.48708" stroke-linecap="round" stroke-linejoin="round"/>
<path d="M243.022 200.397C243.022 200.397 275.738 171.784 308.082 162.122C340.426 152.46 347.117 153.947 346.374 168.439C345.63 182.932 330.016 258.739 319.606 278.062C309.197 297.385 296.185 332.688 296.557 339.376C296.929 346.065 309.569 365.76 320.722 372.821C331.875 379.881 330.76 388.428 323.696 389.914C316.632 391.401 308.453 394.002 284.288 378.395C260.123 362.787 250.086 340.491 251.573 334.917C253.06 329.343 268.674 321.911 274.994 310.763C281.314 299.615 291.724 257.996 292.467 239.044C293.071 227.079 295.581 215.287 299.903 204.113C299.903 204.113 259.008 211.545 247.111 218.977L243.022 200.397Z" fill="white"/>
<path d="M243.022 200.397C243.022 200.397 275.738 171.784 308.082 162.122C340.426 152.46 347.117 153.947 346.374 168.439C345.63 182.932 330.016 258.739 319.606 278.062C309.197 297.385 296.185 332.688 296.557 339.376C296.929 346.065 309.569 365.76 320.722 372.821C331.875 379.881 330.76 388.428 323.696 389.914C316.632 391.401 308.453 394.002 284.288 378.395C260.123 362.787 250.086 340.491 251.573 334.917C253.06 329.343 268.674 321.911 274.994 310.763C281.314 299.615 291.724 257.996 292.467 239.044C293.071 227.079 295.581 215.287 299.903 204.113C299.903 204.113 259.008 211.545 247.111 218.977L243.022 200.397Z" fill="#FF7F2C"/>
<path opacity="0.5" d="M243.022 200.397C243.022 200.397 275.738 171.784 308.082 162.122C340.426 152.46 347.117 153.947 346.374 168.439C345.63 182.932 330.016 258.739 319.606 278.062C309.197 297.385 296.185 332.688 296.557 339.376C296.929 346.065 309.569 365.76 320.722 372.821C331.875 379.881 330.76 388.428 323.696 389.914C316.632 391.401 308.453 394.002 284.288 378.395C260.123 362.787 250.086 340.491 251.573 334.917C253.06 329.343 268.674 321.911 274.994 310.763C281.314 299.615 291.724 257.996 292.467 239.044C293.071 227.079 295.581 215.287 299.903 204.113C299.903 204.113 259.008 211.545 247.111 218.977L243.022 200.397Z" fill="white"/>
<path d="M243.022 200.397C243.022 200.397 275.738 171.784 308.082 162.122C340.426 152.46 347.117 153.947 346.374 168.439C345.63 182.932 330.016 258.739 319.606 278.062C309.197 297.385 296.185 332.688 296.557 339.376C296.929 346.065 309.569 365.76 320.722 372.821C331.875 379.881 330.76 388.428 323.696 389.914C316.632 391.401 308.453 394.002 284.288 378.395C260.123 362.787 250.086 340.491 251.573 334.917C253.06 329.343 268.674 321.911 274.994 310.763C281.314 299.615 291.724 257.996 292.467 239.044C293.071 227.079 295.581 215.287 299.903 204.113C299.903 204.113 259.008 211.545 247.111 218.977L243.022 200.397Z" stroke="#263238" stroke-width="1.48708" stroke-linecap="round" stroke-linejoin="round"/>
<path d="M274.994 310.763C274.518 311.595 273.983 312.398 273.418 313.201C281.108 313.925 288.398 316.962 294.326 321.911C296.109 323.459 297.806 325.101 299.412 326.831C304.81 310.054 311.563 293.744 319.606 278.062C330.016 258.739 345.63 182.932 346.374 168.439C347.117 153.947 340.426 152.46 308.082 162.122C275.738 171.784 243.022 200.397 243.022 200.397L247.111 218.977C259.008 211.545 299.903 204.113 299.903 204.113C295.581 215.287 293.071 227.079 292.467 239.044C291.724 257.996 281.314 299.615 274.994 310.763Z" fill="white" stroke="#263238" stroke-width="1.48708" stroke-linecap="round" stroke-linejoin="round"/>
<path d="M274.994 310.763C274.518 311.595 273.983 312.398 273.418 313.201C281.108 313.925 288.398 316.962 294.326 321.911C296.109 323.459 297.806 325.101 299.412 326.831C306.535 317.259 314.55 287.07 323.592 274.643C346.954 242.552 345.63 182.932 346.374 168.439C347.117 153.947 340.426 152.46 308.082 162.122C275.738 171.784 243.022 200.397 243.022 200.397L247.111 218.977C259.008 211.545 299.903 204.113 299.903 204.113C295.581 215.287 293.071 227.079 292.467 239.044C291.724 257.996 281.314 299.615 274.994 310.763Z" fill="#263238"/>
<path opacity="0.53" d="M274.994 310.763C274.518 311.595 273.983 312.398 273.418 313.201C281.108 313.925 288.398 316.962 294.326 321.911C296.109 323.459 297.806 325.101 299.412 326.831C306.535 317.259 314.55 287.07 323.592 274.643C346.954 242.552 345.63 182.932 346.374 168.439C347.117 153.947 340.426 152.46 308.082 162.122C275.738 171.784 243.022 200.397 243.022 200.397L247.111 218.977C259.008 211.545 299.903 204.113 299.903 204.113C295.581 215.287 293.071 227.079 292.467 239.044C291.724 257.996 281.314 299.615 274.994 310.763Z" fill="white"/>
<path opacity="0.14" d="M330.655 166.477C330.076 161.201 272.57 185.533 248.316 196.027C244.955 198.703 243.022 200.397 243.022 200.397L247.111 218.977C259.008 211.545 299.903 204.113 299.903 204.113C295.581 215.287 293.071 227.079 292.467 239.044C291.724 257.996 281.314 299.615 274.994 310.763C274.518 311.595 273.983 312.398 273.418 313.201C277.513 313.639 281.521 314.676 285.314 316.278C294.222 297.281 303.814 275.178 308.349 257.891C316.528 226.677 331.399 173.166 330.655 166.477Z" fill="black"/>
<path d="M299.903 204.114C299.903 204.114 311.056 181.446 320.722 172.156" stroke="#263238" stroke-width="1.48708" stroke-linecap="round" stroke-linejoin="round"/>
<path d="M274.994 310.763C274.518 311.595 273.983 312.398 273.418 313.201C281.108 313.925 288.398 316.962 294.326 321.911C296.109 323.459 297.806 325.101 299.412 326.831C306.535 317.259 314.55 287.07 323.592 274.643C346.954 242.552 345.63 182.932 346.374 168.439C347.117 153.947 340.426 152.46 308.082 162.122C275.738 171.784 243.022 200.397 243.022 200.397L247.111 218.977C259.008 211.545 299.903 204.113 299.903 204.113C295.581 215.287 293.071 227.079 292.467 239.044C291.724 257.996 281.314 299.615 274.994 310.763Z" stroke="#263238" stroke-width="1.48708" stroke-linecap="round" stroke-linejoin="round"/>
<path d="M194.008 230.393C205.983 229.847 217.822 227.62 229.177 223.779C245.996 217.655 215.407 206.447 203.689 212.571C200.414 214.158 197.72 216.731 195.983 219.927C194.247 223.124 193.556 226.784 194.008 230.393Z" fill="#263238" stroke="#263238" stroke-width="1.48708" stroke-linecap="round" stroke-linejoin="round"/>
<path d="M145.618 206.343C145.618 206.343 133.722 213.032 129.632 220.464C125.543 227.896 143.135 240.278 161.723 239.534C180.312 238.791 214.396 218.606 214.396 218.606C214.396 218.606 214.767 251.307 221.088 263.198C227.408 275.089 256.406 304.074 267.93 311.506C279.455 318.938 318.119 346.809 324.068 351.268C330.016 355.727 341.169 363.902 343.771 364.274C346.374 364.646 373.513 331.573 379.833 320.425C386.153 309.277 391.73 285.866 389.499 280.663C387.268 275.461 382.807 279.92 378.346 283.636C373.885 287.352 332.99 314.479 329.272 316.337C327.242 317.379 325.128 318.25 322.952 318.938C322.952 318.938 289.493 286.981 271.648 262.455C253.803 237.929 252.316 206.343 245.624 194.452C238.932 182.56 229.266 177.358 214.767 178.844C200.268 180.331 170.155 188.134 145.618 206.343Z" fill="white"/>
<path d="M302.921 335.928C312.855 343.033 321.495 349.306 324.068 351.238C330.016 355.697 341.169 363.872 343.771 364.244C344.693 364.378 348.708 360.29 353.779 354.478L311.204 327.099L302.921 335.928Z" fill="#FF7F2C"/>
<path opacity="0.5" d="M302.921 335.928C312.855 343.033 321.495 349.306 324.068 351.238C330.016 355.697 341.169 363.872 343.771 364.244C344.693 364.378 348.708 360.29 353.779 354.478L311.204 327.099L302.921 335.928Z" fill="white"/>
<path d="M145.618 206.343C145.618 206.343 133.722 213.032 129.632 220.464C125.543 227.896 143.135 240.278 161.723 239.534C180.312 238.791 214.396 218.606 214.396 218.606C214.396 218.606 214.767 251.307 221.088 263.198C227.408 275.089 256.406 304.074 267.93 311.506C279.455 318.938 318.119 346.809 324.068 351.268C330.016 355.727 341.169 363.902 343.771 364.274C346.374 364.646 373.513 331.573 379.833 320.425C386.153 309.277 391.73 285.866 389.499 280.663C387.269 275.461 382.807 279.92 378.346 283.636C373.885 287.352 332.99 314.479 329.272 316.337C327.242 317.379 325.128 318.25 322.952 318.938C322.952 318.938 289.493 286.981 271.648 262.455C253.803 237.929 252.316 206.343 245.624 194.452C238.932 182.56 229.266 177.358 214.767 178.844C200.268 180.331 170.155 188.134 145.618 206.343Z" stroke="#263238" stroke-width="1.48708" stroke-linecap="round" stroke-linejoin="round"/>
<path d="M320.647 316.709C312.781 309.039 283.292 269.486 271.648 246.744C254.591 213.418 252.747 202.062 246.056 190.171C239.364 178.28 229.266 177.358 214.827 178.844C200.387 180.331 174.378 183.021 142.555 201.066C142.555 201.066 129.171 208.32 125.097 215.752C121.022 223.184 135.908 241.898 161.783 239.535C180.312 237.84 214.455 218.606 214.455 218.606C214.455 218.606 214.827 251.307 221.147 263.198C227.467 275.089 256.465 304.074 267.99 311.507C275.292 316.218 293.508 329.15 307.383 339.109C310.803 326.668 316.945 319.86 320.647 316.709Z" fill="#263238"/>
<path opacity="0.53" d="M320.647 316.709C312.781 309.039 283.292 269.486 271.648 246.744C254.591 213.418 252.747 202.062 246.056 190.171C239.364 178.28 229.266 177.358 214.827 178.844C200.387 180.331 174.378 183.021 142.555 201.066C142.555 201.066 129.171 208.32 125.097 215.752C121.022 223.184 135.908 241.898 161.783 239.535C180.312 237.84 214.455 218.606 214.455 218.606C214.455 218.606 214.827 251.307 221.147 263.198C227.467 275.089 256.465 304.074 267.99 311.507C275.292 316.218 293.508 329.15 307.383 339.109C310.803 326.668 316.945 319.86 320.647 316.709Z" fill="white"/>
<path opacity="0.14" d="M245.892 263.837C234.739 235.596 241.431 179.112 210.202 186.544C187.45 191.955 145.737 211.189 124.784 221.222C127.268 229.754 140.949 241.437 161.723 239.535C180.252 237.84 214.396 218.606 214.396 218.606C214.396 218.606 214.767 251.307 221.088 263.198C227.408 275.09 256.406 304.075 267.931 311.507C275.232 316.219 293.449 329.15 307.323 339.109C308.518 334.759 310.262 330.578 312.513 326.668C284.824 306.2 252.123 279.608 245.892 263.837Z" fill="black"/>
<path d="M214.396 218.606L213.28 199.283" stroke="#263238" stroke-width="1.48708" stroke-linecap="round" stroke-linejoin="round"/>
<path d="M320.647 316.709C312.781 309.039 283.292 269.486 271.648 246.744C254.591 213.418 252.747 202.062 246.056 190.171C239.364 178.28 229.266 177.358 214.827 178.844C200.387 180.331 174.378 183.021 142.555 201.066C142.555 201.066 129.171 208.32 125.097 215.752C121.022 223.184 135.908 241.898 161.783 239.535C180.312 237.84 214.455 218.606 214.455 218.606C214.455 218.606 214.827 251.307 221.147 263.198C227.467 275.089 256.465 304.074 267.99 311.506C275.292 316.218 293.508 329.15 307.383 339.109C310.803 326.668 316.945 319.86 320.647 316.709Z" stroke="#263238" stroke-width="1.48708" stroke-linecap="round" stroke-linejoin="round"/>
<path d="M324.068 351.268C330.016 355.727 341.169 363.902 343.771 364.274C346.374 364.646 373.513 331.573 379.833 320.425C386.153 309.277 391.73 285.866 389.499 280.663C387.268 275.461 382.807 279.92 378.346 283.636C373.885 287.352 332.99 314.479 329.272 316.337C328.291 316.828 327.399 317.229 326.611 317.571C325.54 319.607 324.231 322.759 325.123 324.884C326.611 328.229 332.931 332.688 332.931 332.688L321.673 349.544L324.068 351.268Z" fill="#263238" stroke="#263238" stroke-width="1.48708" stroke-linecap="round" stroke-linejoin="round"/>
<path d="M379.833 320.425C386.153 309.277 391.73 285.866 389.499 280.664C388.205 277.691 386.168 277.884 383.804 279.341C385.365 286.282 383.804 299.675 376.115 314.108C369.26 326.98 348.084 349.782 337.451 360.811C339.388 362.268 341.527 363.434 343.801 364.274C346.374 364.646 373.513 331.573 379.833 320.425Z" fill="white"/>
<path d="M344.143 364.17L344.47 364.007L344.56 363.932C344.739 363.83 344.909 363.711 345.065 363.575L345.244 363.427L345.675 363.07L345.913 362.847L346.493 362.312L346.85 361.97L347.34 361.494L347.757 361.078L348.173 360.662L349.229 359.547L349.407 359.369L350.062 358.655L350.33 358.373C351.103 357.526 351.936 356.604 352.798 355.623V355.549L353.72 354.508L347.222 350.332C343.534 354.345 340.098 357.972 337.362 360.811L338.358 361.465L338.507 361.554L339.429 362.134L340.916 362.981L341.333 363.219L341.749 363.442L342.225 363.68L342.537 363.828C342.686 363.902 342.84 363.967 342.998 364.021L343.221 364.111C343.393 364.182 343.573 364.232 343.757 364.259C343.849 364.283 343.946 364.283 344.039 364.259L344.143 364.17Z" fill="#FF7F2C"/>
<path opacity="0.5" d="M344.143 364.17L344.47 364.007L344.56 363.932C344.739 363.83 344.909 363.711 345.065 363.575L345.244 363.427L345.675 363.07L345.913 362.847L346.493 362.312L346.85 361.97L347.34 361.494L347.757 361.078L348.173 360.662L349.229 359.547L349.407 359.369L350.062 358.655L350.33 358.373C351.103 357.526 351.936 356.604 352.798 355.623V355.549L353.72 354.508L347.222 350.332C343.534 354.345 340.098 357.972 337.362 360.811L338.358 361.465L338.507 361.554L339.429 362.134L340.916 362.981L341.333 363.219L341.749 363.442L342.225 363.68L342.537 363.828C342.686 363.902 342.84 363.967 342.998 364.021L343.221 364.111C343.393 364.182 343.573 364.232 343.757 364.259C343.849 364.283 343.946 364.283 344.039 364.259L344.143 364.17Z" fill="white"/>
<path d="M379.833 320.425C386.153 309.277 391.73 285.866 389.499 280.664C388.205 277.691 386.168 277.884 383.804 279.341C385.365 286.282 383.804 299.675 376.115 314.108C369.26 326.98 348.084 349.782 337.451 360.811C339.388 362.268 341.527 363.434 343.801 364.274C346.374 364.646 373.513 331.573 379.833 320.425Z" stroke="#263238" stroke-width="1.48708" stroke-linecap="round" stroke-linejoin="round"/>
<path d="M320.722 372.82C309.569 365.76 296.928 346.065 296.557 339.376C296.54 338.644 296.6 337.911 296.735 337.191C294.515 337.262 292.372 338.026 290.608 339.376C286.031 335.225 281.188 331.377 276.109 327.857C272.02 325.502 267.437 324.133 262.726 323.858C257.328 328.317 252.316 331.885 251.528 334.917C250.041 340.491 260.079 362.787 284.244 378.395C308.409 394.002 316.588 391.401 323.651 389.914C330.715 388.428 331.875 379.881 320.722 372.82Z" fill="#263238" stroke="#263238" stroke-width="1.48708" stroke-linecap="round" stroke-linejoin="round"/>
<path d="M320.722 372.821C317.026 370.317 313.694 367.316 310.818 363.903C303.145 360.632 292.899 356.471 283.917 350.882C274.251 344.936 276.481 341.22 270.905 335.646C266.622 331.365 258.205 330.815 254.547 330.785C253.226 331.887 252.204 333.303 251.573 334.903C250.086 340.477 260.123 362.773 284.288 378.38C308.453 393.988 316.632 391.386 323.696 389.9C330.76 388.413 331.875 379.881 320.722 372.821Z" fill="white"/>
<path d="M320.722 372.821C317.026 370.317 313.694 367.316 310.818 363.903C303.145 360.632 292.899 356.471 283.917 350.882C274.251 344.936 276.481 341.22 270.905 335.646C266.622 331.365 258.205 330.815 254.547 330.785C253.226 331.887 252.204 333.303 251.573 334.903C250.086 340.477 260.123 362.773 284.288 378.38C308.453 393.988 316.632 391.386 323.696 389.9C330.76 388.413 331.875 379.881 320.722 372.821Z" fill="#FF7F2C"/>
<path opacity="0.5" d="M320.722 372.821C317.026 370.317 313.694 367.316 310.818 363.903C303.145 360.632 292.899 356.471 283.917 350.882C274.251 344.936 276.481 341.22 270.905 335.646C266.622 331.365 258.205 330.815 254.547 330.785C253.226 331.887 252.204 333.303 251.573 334.903C250.086 340.477 260.123 362.773 284.288 378.38C308.453 393.988 316.632 391.386 323.696 389.9C330.76 388.413 331.875 379.881 320.722 372.821Z" fill="white"/>
<path d="M320.722 372.821C317.026 370.317 313.694 367.316 310.818 363.903C303.145 360.632 292.899 356.471 283.917 350.882C274.251 344.936 276.481 341.22 270.905 335.646C266.622 331.365 258.205 330.815 254.547 330.785C253.226 331.887 252.204 333.303 251.573 334.903C250.086 340.477 260.123 362.773 284.288 378.38C308.453 393.988 316.632 391.386 323.696 389.9C330.76 388.413 331.875 379.881 320.722 372.821Z" stroke="#263238" stroke-width="1.48708" stroke-linecap="round" stroke-linejoin="round"/>
<path d="M322.581 375.422C312.915 369.848 293.211 366.132 280.571 357.585C267.93 349.038 271.276 341.606 261.982 335.66C260.497 334.551 258.718 333.903 256.867 333.797C255.016 333.691 253.174 334.133 251.573 335.066C250.279 340.863 260.346 362.906 284.288 378.395C308.23 393.883 316.632 391.401 323.696 389.914C328.395 388.918 330.432 384.816 328.008 380.104C326.492 378.234 324.654 376.648 322.581 375.422Z" fill="#263238"/>
<path opacity="0.53" d="M322.581 375.422C312.915 369.848 293.211 366.132 280.571 357.585C267.93 349.038 271.276 341.606 261.982 335.66C260.497 334.551 258.718 333.903 256.867 333.797C255.016 333.691 253.174 334.133 251.573 335.066C250.279 340.863 260.346 362.906 284.288 378.395C308.23 393.883 316.632 391.401 323.696 389.914C328.395 388.918 330.432 384.816 328.008 380.104C326.492 378.234 324.654 376.648 322.581 375.422Z" fill="white"/>
<path d="M322.581 375.422C312.915 369.848 293.211 366.132 280.571 357.585C267.93 349.038 271.276 341.606 261.982 335.66C260.497 334.551 258.718 333.903 256.867 333.797C255.016 333.691 253.174 334.133 251.573 335.066C250.279 340.863 260.346 362.906 284.288 378.395C308.23 393.883 316.632 391.401 323.696 389.914C328.395 388.918 330.432 384.816 328.008 380.104C326.492 378.234 324.654 376.648 322.581 375.422V375.422Z" stroke="#263238" stroke-width="1.48708" stroke-linecap="round" stroke-linejoin="round"/>
<path d="M137.32 304.342C137.32 304.342 144.458 295.676 145.47 302.306C146.481 308.935 144.964 321.153 139.863 325.731C134.763 330.31 132.22 323.19 132.22 323.19L135.283 319.117C135.283 319.117 137.826 324.215 139.863 316.055C141.901 307.895 135.789 308.92 135.789 308.92L137.32 304.342Z" fill="#22C314" stroke="#263238" stroke-width="1.48708" stroke-linecap="round" stroke-linejoin="round"/>
<path d="M131.863 336.954C127.64 340.075 113.869 340.075 109.661 336.954C100.738 330.339 102.225 298.381 102.225 298.381H139.194C139.194 298.381 140.8 330.339 131.863 336.954Z" fill="#22C314" stroke="#263238" stroke-width="1.48708" stroke-linecap="round" stroke-linejoin="round"/>
<path d="M106.27 292.109C106.27 288.096 110.003 288.096 110.003 284.067C110.003 280.039 106.27 280.039 106.27 276.026C106.27 272.013 110.003 271.998 110.003 267.97C110.003 263.941 106.27 263.941 106.27 259.913C106.27 255.885 110.003 255.885 110.003 251.857" stroke="#263238" stroke-width="1.48708" stroke-linecap="round" stroke-linejoin="round"/>
<path d="M119.044 292.109C119.044 289.136 122.777 289.136 122.777 286C122.777 282.864 119.044 282.953 119.044 279.891C119.044 276.829 122.777 276.844 122.777 273.782C122.777 270.72 119.044 270.72 119.044 267.658C119.044 264.596 122.777 264.611 122.777 261.549" stroke="#263238" stroke-width="1.48708" stroke-linecap="round" stroke-linejoin="round"/>
<path d="M133.097 292.109C133.097 288.096 136.815 288.096 136.815 284.067C136.815 280.039 133.097 280.039 133.097 276.026C133.097 272.013 136.815 271.998 136.815 267.97C136.815 263.941 133.097 263.941 133.097 259.913C133.097 255.885 136.815 255.885 136.815 251.857" stroke="#263238" stroke-width="1.48708" stroke-linecap="round" stroke-linejoin="round"/>
<path d="M139.224 298.382C139.224 299.319 130.956 300.062 120.739 300.062C110.523 300.062 102.255 299.319 102.255 298.382C102.255 297.445 110.523 296.702 120.739 296.702C130.956 296.702 139.224 297.445 139.224 298.382Z" fill="white" stroke="#263238" stroke-width="1.48708" stroke-linecap="round" stroke-linejoin="round"/>
<path d="M173.352 68.3745C173.352 68.3745 175.092 87.1479 175.821 93.0786C176.55 99.0094 178.2 116.044 179.91 121.677C181.621 127.311 190.944 137.106 191.807 134.847C192.67 132.587 197.309 117.263 195.465 108.091C193.621 98.9202 193.056 91.0868 194.201 88.768C195.346 86.4492 199.465 83.848 199.465 83.848C194.667 81.3917 190.006 78.6775 185.502 75.7174C178.929 71.3473 174.274 66.3976 173.352 68.3745Z" fill="white"/>
<path d="M197.22 84.8587L195.733 81.975C192.997 80.4886 189.19 78.2887 185.576 75.8659C178.959 71.4067 174.304 66.3975 173.382 68.4339C173.382 68.4339 175.122 87.2072 175.851 93.138C176.579 99.0688 178.23 116.103 179.94 121.736C180.523 123.384 181.329 124.944 182.334 126.374C180.535 115.167 182.483 94.9217 182.483 94.9217L197.22 84.8587Z" fill="#FF7F2C"/>
<path opacity="0.5" d="M197.22 84.8587L195.733 81.975C192.997 80.4886 189.19 78.2887 185.576 75.8659C178.959 71.4067 174.304 66.3975 173.382 68.4339C173.382 68.4339 175.122 87.2072 175.851 93.138C176.579 99.0688 178.23 116.103 179.94 121.736C180.523 123.384 181.329 124.944 182.334 126.374C180.535 115.167 182.483 94.9217 182.483 94.9217L197.22 84.8587Z" fill="white"/>
<path d="M173.352 68.3745C173.352 68.3745 175.092 87.1479 175.821 93.0786C176.55 99.0094 178.2 116.044 179.91 121.677C181.621 127.311 190.944 137.106 191.807 134.847C192.67 132.587 197.309 117.263 195.465 108.091C193.621 98.9202 193.056 91.0868 194.201 88.768C195.346 86.4492 199.465 83.848 199.465 83.848C194.667 81.3917 190.006 78.6775 185.502 75.7174C178.929 71.3473 174.274 66.3976 173.352 68.3745Z" stroke="#263238" stroke-width="1.48708" stroke-linecap="round" stroke-linejoin="round"/>
<path d="M172.668 71.0946C172.668 71.0946 183.375 80.013 191.584 83.2831C199.793 86.5532 212.403 86.3451 214.202 82.0791C216.002 77.8131 211.08 44.0271 206.841 35.1383C202.603 26.2496 198.082 26.101 190.602 25.4172C183.122 24.7335 168.162 30.8278 165.53 38.0517C162.898 45.2757 165.902 55.5021 168.073 61.5667C169.221 64.9136 170.764 68.1121 172.668 71.0946Z" fill="white"/>
<path d="M191.896 70.6929C188.104 59.4556 187.152 41.7674 187.152 37.0554C187.152 33.4137 196.64 29.4153 200.967 27.7803C198.127 26.0263 194.826 25.8033 190.558 25.4169C183.122 24.748 168.118 30.8274 165.486 38.0514C162.854 45.2753 165.857 55.5018 168.029 61.5663C169.177 64.9133 170.719 68.1117 172.624 71.0942C172.624 71.0942 183.331 80.0127 191.539 83.2828C197.228 85.4347 203.39 86.0249 209.384 84.9921C203.51 82.7774 194.424 78.1993 191.896 70.6929Z" fill="#FF7F2C"/>
<path opacity="0.5" d="M191.896 70.6929C188.104 59.4556 187.152 41.7674 187.152 37.0554C187.152 33.4137 196.64 29.4153 200.967 27.7803C198.127 26.0263 194.826 25.8033 190.558 25.4169C183.122 24.748 168.118 30.8274 165.486 38.0514C162.854 45.2753 165.857 55.5018 168.029 61.5663C169.177 64.9133 170.719 68.1117 172.624 71.0942C172.624 71.0942 183.331 80.0127 191.539 83.2828C197.228 85.4347 203.39 86.0249 209.384 84.9921C203.51 82.7774 194.424 78.1993 191.896 70.6929Z" fill="white"/>
<path d="M172.668 71.0946C172.668 71.0946 183.375 80.013 191.584 83.2831C199.793 86.5532 212.403 86.3451 214.202 82.0791C216.002 77.8131 211.08 44.0271 206.841 35.1383C202.603 26.2496 198.082 26.101 190.602 25.4172C183.122 24.7335 168.162 30.8278 165.53 38.0517C162.898 45.2757 165.902 55.5021 168.073 61.5667C169.221 64.9136 170.764 68.1121 172.668 71.0946V71.0946Z" stroke="#263238" stroke-width="1.48708" stroke-linecap="round" stroke-linejoin="round"/>
<path d="M207.644 49.0509C207.823 53.3318 205.131 56.914 201.696 57.0478C198.261 57.1816 195.257 53.8371 195.093 49.6157C194.93 45.3943 197.607 41.7526 201.042 41.604C204.477 41.4554 207.481 44.7254 207.644 49.0509Z" stroke="#263238" stroke-width="1.48708" stroke-linecap="round" stroke-linejoin="round"/>
<path d="M216.061 47.3862C216.24 51.6671 214.857 55.1899 212.983 55.2642C211.109 55.3385 209.444 51.9346 209.28 47.6538C209.117 43.3729 210.5 39.8353 212.373 39.761C214.247 39.6866 215.898 43.1054 216.061 47.3862Z" stroke="#263238" stroke-width="1.48708" stroke-linecap="round" stroke-linejoin="round"/>
<path d="M208.09 47.4756C208.09 47.4756 220.374 49.8092 219.184 52.7672C217.994 55.7252 209.697 58.9209 209.697 58.9209" fill="white"/>
<path d="M208.09 47.4756C208.09 47.4756 220.374 49.8092 219.184 52.7672C217.994 55.7252 209.697 58.9209 209.697 58.9209" stroke="#263238" stroke-width="1.48708" stroke-linecap="round" stroke-linejoin="round"/>
<path d="M207.332 46.0787C207.332 46.0787 207.51 44.5916 209.399 45.5285" stroke="#263238" stroke-width="1.48708" stroke-linecap="round" stroke-linejoin="round"/>
<path d="M194.707 50.2109L172.371 58.9956" stroke="#263238" stroke-width="1.48708" stroke-linecap="round" stroke-linejoin="round"/>
<path d="M195.004 42.9883C195.474 41.9252 196.26 41.0325 197.255 40.4313C198.25 39.8301 199.406 39.5495 200.566 39.6275" stroke="#263238" stroke-width="2.97416" stroke-linecap="round" stroke-linejoin="round"/>
<path d="M209.875 39.7317L206.44 41.0255" stroke="#263238" stroke-width="2.97416" stroke-linecap="round" stroke-linejoin="round"/>
<path d="M199.257 64.6588C199.257 64.6588 203.718 63.4989 206.246 66.1459" stroke="#263238" stroke-width="1.48708" stroke-linecap="round" stroke-linejoin="round"/>
<path d="M202.127 49.824C202.336 51.3104 202.127 52.5887 201.518 52.663C200.908 52.7373 200.373 51.5928 200.164 50.0915C199.956 48.5902 200.239 47.3417 200.789 47.2673C201.339 47.193 201.934 48.3376 202.127 49.824Z" fill="#263238"/>
<path d="M174.453 59.0548C174.453 59.0548 172.966 62.0276 177.159 62.1763C181.353 62.3249 184.208 60.2885 182.171 57.717C180.133 55.1455 177.115 52.7376 180.223 49.3783C183.331 46.019 189.368 43.1948 185.978 39.4491C182.587 35.7033 170.111 39.1072 173.233 36.0749C176.356 33.0426 190.781 29.8766 197.265 30.2779C203.748 30.6792 215.853 25.6552 218.515 19.0852C221.177 12.5153 217.459 0.371362 208.745 1.02538C200.031 1.6794 193.532 9.39387 189.666 9.94384C185.799 10.4938 177.873 6.19809 171.226 9.94384C164.579 13.6896 164.356 24.4512 163.79 25.7741C163.225 27.097 154.214 29.059 152.623 38.1707C152.025 41.8442 152.28 45.6057 153.369 49.1649C154.457 52.7241 156.348 55.9858 158.898 58.6981C162.631 62.756 164.311 64.3018 164.311 64.3018L174.453 59.0548Z" fill="#263238" stroke="#263238" stroke-width="1.48708" stroke-linecap="round" stroke-linejoin="round"/>
<path d="M155.537 42.5852C155.46 43.9686 155.791 45.3442 156.489 46.5408" stroke="white" stroke-width="1.11531" stroke-linecap="round" stroke-linejoin="round"/>
<path d="M193.443 19.055C193.443 19.055 190.201 11.9648 198.469 11.9648C206.737 11.9648 207.927 22.3697 199.361 26.1452C190.796 29.9207 172.163 30.872 162.11 35.3163C160.137 36.0882 158.382 37.3277 156.995 38.9283" stroke="white" stroke-width="1.11531" stroke-linecap="round" stroke-linejoin="round"/>
<path d="M178.468 44.2356C175.494 45.3058 171.642 46.7922 167.731 48.6056C159.448 52.4554 161.218 56.2904 161.218 56.2904" stroke="white" stroke-width="1.11531" stroke-linecap="round" stroke-linejoin="round"/>
<path d="M183.985 42.4072C183.985 42.4072 183.256 42.6154 182.022 43.0169" stroke="white" stroke-width="1.11531" stroke-linecap="round" stroke-linejoin="round"/>
<path d="M175.866 62.2357C175.866 62.2357 171.062 55.309 166.006 58.0886C160.95 60.8682 164.876 70.7528 167.925 74.1864C170.973 77.62 176.847 71.2136 177.457 69.6083" fill="white"/>
<path d="M175.866 62.2357C175.866 62.2357 171.062 55.309 166.006 58.0886C160.95 60.8682 164.876 70.7528 167.925 74.1864C170.973 77.62 176.847 71.2136 177.457 69.6083" fill="#FF7F2C"/>
<path opacity="0.5" d="M175.866 62.2357C175.866 62.2357 171.062 55.309 166.006 58.0886C160.95 60.8682 164.876 70.7528 167.925 74.1864C170.973 77.62 176.847 71.2136 177.457 69.6083" fill="white"/>
<path d="M175.866 62.2357C175.866 62.2357 171.062 55.309 166.006 58.0886C160.95 60.8682 164.876 70.7528 167.925 74.1864C170.973 77.62 176.847 71.2136 177.457 69.6083" stroke="#263238" stroke-width="1.48708" stroke-linecap="round" stroke-linejoin="round"/>
<path d="M115.208 55.9182H8.61384C4.40884 55.9182 1 59.3255 1 63.5286V141.417C1 145.62 4.40884 149.027 8.61384 149.027H115.208C119.413 149.027 122.821 145.62 122.821 141.417V63.5286C122.821 59.3255 119.413 55.9182 115.208 55.9182Z" fill="white" stroke="#263238" stroke-width="1.48708" stroke-linecap="round" stroke-linejoin="round"/>
<path d="M120.502 122.896L191.881 141.476L120.502 106.545" fill="white"/>
<path d="M120.502 122.896L191.881 141.476L120.502 106.545" stroke="#263238" stroke-width="1.48708" stroke-linecap="round" stroke-linejoin="round"/>
<path d="M39.5005 64.8665H10.8445V140.079H39.5005V64.8665Z" fill="#FF7F2C" stroke="#263238" stroke-width="1.48708" stroke-linecap="round" stroke-linejoin="round"/>
<path d="M116.501 64.8665H112.917V140.079H116.501V64.8665Z" fill="#FF7F2C" stroke="#263238" stroke-width="1.48708" stroke-linecap="round" stroke-linejoin="round"/>
<path d="M116.501 99.2473H112.917V105.669H116.501V99.2473Z" fill="#263238" stroke="#263238" stroke-width="1.48708" stroke-linecap="round" stroke-linejoin="round"/>
<path d="M48.4675 66.6501H104.902" stroke="#263238" stroke-width="1.48708" stroke-linecap="round" stroke-linejoin="round"/>
<path d="M48.4675 74.7065H104.902" stroke="#263238" stroke-width="1.48708" stroke-linecap="round" stroke-linejoin="round"/>
<path d="M48.4675 82.7778H104.902" stroke="#263238" stroke-width="1.48708" stroke-linecap="round" stroke-linejoin="round"/>
<path d="M48.4675 90.834H104.902" stroke="#263238" stroke-width="1.48708" stroke-linecap="round" stroke-linejoin="round"/>
<path d="M48.4675 110.529H104.902" stroke="#263238" stroke-width="1.48708" stroke-linecap="round" stroke-linejoin="round"/>
<path d="M48.4675 117.694H104.902" stroke="#263238" stroke-width="1.48708" stroke-linecap="round" stroke-linejoin="round"/>
<path d="M48.4675 124.858H104.902" stroke="#263238" stroke-width="1.48708" stroke-linecap="round" stroke-linejoin="round"/>
<path d="M48.4675 139.722H104.902" stroke="#263238" stroke-width="1.48708" stroke-linecap="round" stroke-linejoin="round"/>
<path d="M10.8445 140.064L39.5153 64.8665" stroke="#263238" stroke-width="1.48708" stroke-linecap="round" stroke-linejoin="round"/>
</svg>
