<svg width="39" height="39" viewBox="0 0 39 39" fill="none" xmlns="http://www.w3.org/2000/svg">
<path d="M6.5 14.625C6.5 10.0288 6.5 7.73071 7.92785 6.30285C9.35571 4.875 11.6538 4.875 16.25 4.875H22.75C27.3462 4.875 29.6443 4.875 31.0721 6.30285C32.5 7.73071 32.5 10.0288 32.5 14.625V25.7199C32.5 30.0802 32.5 32.2604 31.128 32.9272C29.756 33.594 28.0417 32.2471 24.6131 29.5532L23.5158 28.691C21.588 27.1763 20.6241 26.4189 19.5 26.4189C18.3759 26.4189 17.412 27.1763 15.4842 28.691L14.3869 29.5532C10.9583 32.2471 9.24395 33.594 7.87198 32.9272C6.5 32.2604 6.5 30.0802 6.5 25.7199V14.625Z" stroke="#33363F" stroke-width="2"/>
</svg>
